<svg xmlns="http://www.w3.org/2000/svg" width="550" height="350"><style>.a{fill:#fff}.b{fill:#e30a17}</style><path d="M275 0c119.7 0 160.1 32.6 191.2 48.5 28.2 14.4 59.4 29.6 62.1 70.8 3 45.1 1.1 92.1-11.4 111.4-11.1 17.2-25.3 42.4-95.6 77-70.2 34.6-146.6 33.4-146.4 33.2.2.2-76.1 1.4-146.4-33.2-70.2-34.6-84.5-59.8-95.6-77-12.4-19.3-14.4-66.3-11.4-111.4 2.8-41.2 34-56.4 62.2-70.8C114.9 32.6 155.3 0 275 0z" class="a"/><path d="M275 9c83.4 0 160.1 23.6 191.2 39.5 28.2 14.4 59.4 29.6 62.1 70.8 3 45.1 1.1 92.1-11.4 111.4-11.1 17.2-25.3 42.4-95.6 77-70.2 34.6-146.6 33.4-146.4 33.2.2.2-76.1 1.4-146.4-33.2-70.2-34.6-84.5-59.8-95.6-77-12.4-19.3-14.4-66.3-11.4-111.4 2.8-41.2 34-56.4 62.2-70.8C114.9 32.6 191.6 9 275 9" class="b"/><path d="M441.6 239.4c44.5-21.3 50.2-37 54.6-44.7 4.8-8.5 6.8-36.3 5.3-55.8-1.3-17.2-3.9-28.6-27.7-39.4-24.6-11-115.3-24.2-198.8-24.2-83.4 0-174.2 13.3-198.8 24.3-23.8 10.7-26.4 22.2-27.7 39.4-1.4 19.4.5 47.3 5.4 55.8 4.4 7.6 10 23.4 54.6 44.7 27.6 13.2 56 20.1 75.4 23.8.9.2 1.5.9 1.5 1.8v1.8c0 33.3 40.2 60.3 89.7 60.4 49.6-.1 89.7-27.1 89.7-60.4v-1.8c0-.9.7-1.7 1.6-1.9 19.3-3.7 47.6-10.6 75.2-23.8" class="a"/><path d="M217.8 114.5c-21.2 0-29.4 15.4-30.8 35.6-.2 2.2-.2 4.5-.2 6.8 0 6.4.6 12.4 1.8 17.8h17.9c-1-5-1.1-11.1-1.1-17.8 0-2.4 0-4.6.1-6.8.5-13.2 2.8-23 12.3-23 8.8 0 11.7 9.8 12.3 23 .1 2.2.1 4.5.1 6.8 0 6.7-.4 12.8-1.5 17.8-1.6 7.3-4.9 12.1-11 12.1-6.8 0-9.9-4.7-11.3-12.1h-17.9c3.4 14.5 12 24.5 29.2 24.5 17 0 25.7-10 29.2-24.5 1.3-5.4 1.9-11.4 1.9-17.8 0-2.3-.1-4.6-.3-6.8-1.3-20.2-9.6-35.6-30.7-35.6zm128.1 1.9v80.7h16v-18.2l3.2-4.2 2.5-3.2 1.7 3.2 11.6 22.4h17.6l-12.2-22.4-8.4-15.3 6.8-9.3 11.2-15.3h-17.6l-10.7 15.3-5.6 8v-41.7h-16.1zm-270.4.4v80.3h27.8c17.4 0 25.5-7.1 28.5-22.4h-18.7c-1.9 6.1-5.6 8.5-12.7 8.5h-7.7v-53.4h7.3c11.6 0 14.2 6.9 14.7 20.3h18.4c-.8-20.4-6.3-33.3-28.8-33.3H75.5zm57.7 33.3h-18.4c.1 1.8.1 3.7.1 5.7 0 8.5-.4 14.6-1.7 18.8h18.7c1-5.3 1.5-11.5 1.5-18.8-.1-1.9-.1-3.8-.2-5.7zM316 121.8v12.3h-8.1V145h8.1v35.6c0 12.6 2.3 16.5 14.8 16.5 3.7 0 6.9-.4 10.4-.7v-11.1c-1.1.1-2.3.2-3.6.2-4.6 0-5.7-2-5.7-6.8V145h9.3v-10.9h-9.3v-12.3H316zm-35.9 9.5c-4.1 0-7.8.8-11.2 2.4-3.3 1.6-6.2 3.9-8.6 6.9-2.1 2.6-3.8 5.8-5 9.5-.2.5-.3 1.1-.5 1.6-1.3 4.3-1.9 9-1.9 14.2 0 3.1.2 6 .7 8.8.6 3.3 1.4 6.2 2.6 8.9 2.2 5 5.4 8.8 9.6 11.6 4.2 2.7 9.1 4.1 14.8 4.1 4.9 0 9.2-.9 13-2.8 3.8-1.9 6.8-4.5 9.1-7.9 2.4-3.4 3.8-7.3 4.2-11.7h-16.8c-.7 2.8-1.9 5-3.7 6.6-1.8 1.6-3.8 2.4-6.2 2.4-3.2 0-5.8-1.4-7.8-4.1-1.4-1.9-2.3-4.2-2.8-7-.2-1.2-.3-2.5-.3-3.8v-.7h38.1v-2.6c0-6-.6-11.2-1.7-15.5-.2-.7-.4-1.3-.6-2-1.1-3.5-2.8-6.6-4.8-9.4-1.5-2-3.3-3.7-5.5-5.1-2.1-1.4-4.5-2.5-7-3.2-2.4-.8-5-1.2-7.7-1.2zm142 0c-4.1 0-7.9.8-11.2 2.4-3.3 1.6-6.1 3.9-8.6 6.9-2.1 2.6-3.8 5.8-5 9.5-.2.5-.3 1.1-.5 1.6-1.3 4.3-1.9 9-1.9 14.2 0 3.1.2 6 .7 8.8.5 3.3 1.4 6.2 2.6 8.9 2.2 5 5.4 8.8 9.5 11.6 4.2 2.7 9.2 4.1 14.8 4.1 4.9 0 9.2-.9 13-2.8 3.8-1.9 6.9-4.5 9.2-7.9 2.4-3.4 3.7-7.3 4.1-11.7h-16.7c-.7 2.8-1.9 5-3.7 6.6-1.8 1.6-3.9 2.4-6.2 2.4-3.2 0-5.8-1.4-7.8-4.1-1.4-1.9-2.4-4.2-2.8-7-.2-1.2-.3-2.5-.3-3.8v-.7h38.1v-2.6c0-6-.6-11.2-1.7-15.5-.2-.7-.4-1.3-.6-2-1.1-3.5-2.8-6.6-4.9-9.4-1.5-2-3.3-3.7-5.5-5.1-2.1-1.4-4.5-2.5-7-3.2-2.3-.8-4.9-1.2-7.6-1.2zm-252.2 1.9c-6.6 0-11.1 3.9-14.3 9.9h-.3v-8.3H140v15.3h21.1c2-1.1 4.4-1.6 6.7-1.6 1.6 0 3.3.1 5 .2v-15.3c-.9-.1-2-.2-2.9-.2zM140 150.1v47h16v-37.4c0-4.9 2.2-8 5.2-9.6H140zm344.9-16.9c-6.6 0-11.1 3.9-14.3 9.9h-.3v-8.3H455v15.3h21.1c2-1.1 4.4-1.6 6.7-1.6 1.6 0 3.3.1 5 .2v-15.3c-1-.1-2-.2-2.9-.2zM455 150.1v47h16v-37.4c0-4.9 2.2-8 5.1-9.6H455zm-174.7-5.9c2.9 0 5.2 1.1 6.8 3.3.6.7 1.1 1.6 1.5 2.6.9 2 1.5 4.4 1.9 7.4h-21c.3-2.9 1-5.4 2-7.4.4-.9 1-1.7 1.6-2.5 1.8-2.3 4.3-3.4 7.2-3.4zm142 0c2.9 0 5.2 1.1 6.8 3.3.6.7 1.1 1.6 1.5 2.6.9 2 1.5 4.4 1.9 7.4h-21c.3-2.9.9-5.4 1.9-7.4.4-.9 1-1.7 1.6-2.5 2-2.3 4.4-3.4 7.3-3.4zm-260.9 39.2v13.7h13.7v-13.7h-13.7z" fill="#25338B"/><path d="M273.7 218.9c-1.4.1-3 .4-4 .2-.9-.1-1.9 0-2.8-.2-.7-.1-1.4-.1-2.1.1-1.1.1-2 .5-2.8 1-.8.6-3 3.5-3.5 3.9-.4.4-1.9 1.6-2.6 2.3-.8.8-1.5 2.5-1.7 3.4-.1.9-.1 2.7 0 3.2.1.4 0 1.1-.1 1.6s-.5 2.2-.6 2.4c-.2.2-.3 1.4-.3 3.1 0 1.7.1 2.7-.1 3.8-.2 1.1-.3 2.3-2.4 4.6s-2 2.7-2.2 3.2c-.2.5-.3.9.2 1.7.6.8.9.8 1.4 1.2.4.4 2 .7 1.5 2.5-.6 1.9.5 2 .5 2.7 0 .7-.2.9-.1 1.5s.6 1.4.6 1.9c0 .9.1 1.5-.2 3.8 0 0-.3 2.8 3.6 3.8s6.6 2.2 7.5 3.6c.9 1.4 1 3.3.5 5-.5 1.7-1.6 3.5-4.3 5.3-2.8 2-7.6 3.6-13.4 6.8-5.8 3.2-6.8 4.8-7.7 6-.7.9-1.7 2.8-1.9 4-.1 1-.4 2.6 1.4 3.4 2 .9 3.3.6 3.3.6h69.4s2.9.4 4.4-1.4c1.5-1.9.2-5.5-.1-6.3-.4-1-1.9-2.8-3.4-4-1.6-1.4-6.8-4.6-9.6-6.1-2.3-1.2-9.9-5.5-12.9-9.1-2.7-3.2-3.8-7.1-3-9.3.9-2.2 2.6-2.4 3.8-2.3 1 .1 3.6.7 4.6.5 1.2-.3 2.3-.7 3.4-2.6 1.1-1.9 4.2-2.5 4.9-3 .7-.4 4.1-2.6 4.3-5.9.3-4.4-1.4-4.4-2-9-.5-4.6-1.4-5.3-3.1-7.3-1.4-1.6-2.5-5.2-3.1-6.6-1.1-2.7-3.5-4.2-4.6-4.5-1.1-.3-4.3-1.8-5.7-3.4-1.2-1.3-3.2-3.3-5-3.7-1.7-.4-4.8-.5-5.8-1-1.1-.6-2.9-1.2-3.2-1.1-.2-.1.4-.3-1-.3m-82.2 47.7c0-30.3 37.4-54.8 83.6-54.8 46.2 0 83.6 24.6 83.6 54.8 0 30.3-37.4 54.8-83.6 54.8-46.2 0-83.6-24.5-83.6-54.8z" class="b"/></svg>