<svg width="122" height="600" viewBox="-4 -4 122 600" xmlns="http://www.w3.org/2000/svg" xmlns:xlink="http://www.w3.org/1999/xlink"><defs><path d="M57.128 15.813c1.732-1.82 3.328-3.575 5.006-5.25C73.761-1.018 88.031-2.776 100.53 5.816c12.107 8.324 16.61 25.12 10.184 38.748-1.318 2.795-3.116 5.502-5.207 7.78-12.763 13.901-25.675 27.67-38.536 41.483-7.487 8.042-11.888 8.187-19.348.333C34.42 80.255 21.348 66.224 8.152 52.315-.469 43.237-1.23 32.66 2.224 21.44 5.71 10.123 14.032 3.162 25.242.902c11.748-2.37 21.347 3.08 29.172 11.666.904.993 1.725 2.058 2.714 3.245" id="a"/></defs><use xlink:href="#a" fill="none" stroke-width="8" stroke="#8c7256"/><use y="150" xlink:href="#a" fill="#8c7256" stroke-width="8" stroke="#8c7256"/><use y="300" xlink:href="#a" fill="none" stroke-width="8" stroke="#777470"/><use y="450" xlink:href="#a" fill="#777470" stroke-width="8" stroke="#777470"/></svg>